<mxfile host="app.diagrams.net" modified="2020-11-09T20:39:54.831Z" agent="5.0 (Macintosh; Intel Mac OS X 10_15_7) AppleWebKit/537.36 (KHTML, like Gecko) Chrome/86.0.4240.183 Safari/537.36" etag="f7uxdEq5ZKZ4jnkfjsum" version="13.6.6" type="github">
  <diagram id="NqA2TMrv4R5oLVnR1bAS" name="Page-1">
    <mxGraphModel dx="1426" dy="770" grid="1" gridSize="10" guides="1" tooltips="1" connect="1" arrows="1" fold="1" page="1" pageScale="1" pageWidth="827" pageHeight="1169" math="0" shadow="0">
      <root>
        <mxCell id="0" />
        <mxCell id="1" parent="0" />
        <mxCell id="-JGBHk-QufhVQ-9pnQ-U-1" value="User" style="shape=umlLifeline;participant=umlActor;perimeter=lifelinePerimeter;whiteSpace=wrap;html=1;container=1;collapsible=0;recursiveResize=0;verticalAlign=top;spacingTop=36;outlineConnect=0;" vertex="1" parent="1">
          <mxGeometry x="45" y="20" width="20" height="790" as="geometry" />
        </mxCell>
        <mxCell id="-JGBHk-QufhVQ-9pnQ-U-10" value="" style="html=1;points=[];perimeter=orthogonalPerimeter;rounded=0;shadow=0;comic=0;labelBackgroundColor=none;strokeWidth=1;fontFamily=Verdana;fontSize=12;align=center;" vertex="1" parent="-JGBHk-QufhVQ-9pnQ-U-1">
          <mxGeometry x="5" y="100" width="10" height="690" as="geometry" />
        </mxCell>
        <mxCell id="-JGBHk-QufhVQ-9pnQ-U-2" value="Smart App IOS" style="shape=umlLifeline;perimeter=lifelinePerimeter;whiteSpace=wrap;html=1;container=1;collapsible=0;recursiveResize=0;outlineConnect=0;rounded=1;shadow=0;comic=0;labelBackgroundColor=none;strokeWidth=1;fontFamily=Verdana;fontSize=12;align=center;" vertex="1" parent="1">
          <mxGeometry x="170" y="20" width="100" height="790" as="geometry" />
        </mxCell>
        <mxCell id="-JGBHk-QufhVQ-9pnQ-U-3" value="" style="html=1;points=[];perimeter=orthogonalPerimeter;rounded=0;shadow=0;comic=0;labelBackgroundColor=none;strokeWidth=1;fontFamily=Verdana;fontSize=12;align=center;" vertex="1" parent="-JGBHk-QufhVQ-9pnQ-U-2">
          <mxGeometry x="45" y="100" width="10" height="690" as="geometry" />
        </mxCell>
        <mxCell id="-JGBHk-QufhVQ-9pnQ-U-4" value="VSSHCore_IOS" style="shape=umlLifeline;perimeter=lifelinePerimeter;whiteSpace=wrap;html=1;container=1;collapsible=0;recursiveResize=0;outlineConnect=0;rounded=1;shadow=0;comic=0;labelBackgroundColor=none;strokeWidth=1;fontFamily=Verdana;fontSize=12;align=center;" vertex="1" parent="1">
          <mxGeometry x="350" y="20" width="100" height="740" as="geometry" />
        </mxCell>
        <mxCell id="-JGBHk-QufhVQ-9pnQ-U-5" value="" style="html=1;points=[];perimeter=orthogonalPerimeter;rounded=0;shadow=0;comic=0;labelBackgroundColor=none;strokeWidth=1;fontFamily=Verdana;fontSize=12;align=center;" vertex="1" parent="-JGBHk-QufhVQ-9pnQ-U-4">
          <mxGeometry x="45" y="100" width="10" height="640" as="geometry" />
        </mxCell>
        <mxCell id="-JGBHk-QufhVQ-9pnQ-U-6" value="Backend" style="shape=umlLifeline;perimeter=lifelinePerimeter;whiteSpace=wrap;html=1;container=1;collapsible=0;recursiveResize=0;outlineConnect=0;rounded=1;shadow=0;comic=0;labelBackgroundColor=none;strokeWidth=1;fontFamily=Verdana;fontSize=12;align=center;" vertex="1" parent="1">
          <mxGeometry x="520" y="20" width="100" height="800" as="geometry" />
        </mxCell>
        <mxCell id="-JGBHk-QufhVQ-9pnQ-U-7" value="" style="html=1;points=[];perimeter=orthogonalPerimeter;rounded=0;shadow=0;comic=0;labelBackgroundColor=none;strokeWidth=1;fontFamily=Verdana;fontSize=12;align=center;" vertex="1" parent="-JGBHk-QufhVQ-9pnQ-U-6">
          <mxGeometry x="45" y="100" width="10" height="700" as="geometry" />
        </mxCell>
        <mxCell id="-JGBHk-QufhVQ-9pnQ-U-8" value="CMS" style="shape=umlLifeline;perimeter=lifelinePerimeter;whiteSpace=wrap;html=1;container=1;collapsible=0;recursiveResize=0;outlineConnect=0;rounded=1;shadow=0;comic=0;labelBackgroundColor=none;strokeWidth=1;fontFamily=Verdana;fontSize=12;align=center;" vertex="1" parent="1">
          <mxGeometry x="700" y="20" width="100" height="800" as="geometry" />
        </mxCell>
        <mxCell id="-JGBHk-QufhVQ-9pnQ-U-9" value="" style="html=1;points=[];perimeter=orthogonalPerimeter;rounded=0;shadow=0;comic=0;labelBackgroundColor=none;strokeWidth=1;fontFamily=Verdana;fontSize=12;align=center;" vertex="1" parent="-JGBHk-QufhVQ-9pnQ-U-8">
          <mxGeometry x="45" y="100" width="10" height="700" as="geometry" />
        </mxCell>
        <mxCell id="-JGBHk-QufhVQ-9pnQ-U-11" value="marketplace-categories-services&#xa;GetCategories" style="verticalAlign=bottom;endArrow=block;shadow=0;strokeWidth=1;" edge="1" parent="1">
          <mxGeometry relative="1" as="geometry">
            <mxPoint x="415.5" y="253" as="sourcePoint" />
            <mxPoint x="556" y="253" as="targetPoint" />
          </mxGeometry>
        </mxCell>
        <mxCell id="-JGBHk-QufhVQ-9pnQ-U-12" value="response" style="verticalAlign=bottom;endArrow=block;shadow=0;strokeWidth=1;" edge="1" parent="1">
          <mxGeometry relative="1" as="geometry">
            <mxPoint x="550" y="360" as="sourcePoint" />
            <mxPoint x="420" y="360" as="targetPoint" />
          </mxGeometry>
        </mxCell>
        <mxCell id="-JGBHk-QufhVQ-9pnQ-U-13" value="marketplace-categories-services" style="verticalAlign=bottom;endArrow=block;shadow=0;strokeWidth=1;" edge="1" parent="1">
          <mxGeometry relative="1" as="geometry">
            <mxPoint x="590" y="280" as="sourcePoint" />
            <mxPoint x="730.5" y="280" as="targetPoint" />
          </mxGeometry>
        </mxCell>
        <mxCell id="-JGBHk-QufhVQ-9pnQ-U-14" value="response" style="verticalAlign=bottom;endArrow=block;shadow=0;strokeWidth=1;" edge="1" parent="1">
          <mxGeometry relative="1" as="geometry">
            <mxPoint x="729" y="320" as="sourcePoint" />
            <mxPoint x="589" y="320" as="targetPoint" />
          </mxGeometry>
        </mxCell>
        <mxCell id="-JGBHk-QufhVQ-9pnQ-U-15" value="getCategoriesAV" style="verticalAlign=bottom;endArrow=block;shadow=0;strokeWidth=1;" edge="1" parent="1">
          <mxGeometry relative="1" as="geometry">
            <mxPoint x="240" y="210" as="sourcePoint" />
            <mxPoint x="380.5" y="210" as="targetPoint" />
          </mxGeometry>
        </mxCell>
        <mxCell id="-JGBHk-QufhVQ-9pnQ-U-16" value="Select option &quot;Tienda Virtual&quot;" style="verticalAlign=bottom;endArrow=block;shadow=0;strokeWidth=1;" edge="1" parent="1">
          <mxGeometry relative="1" as="geometry">
            <mxPoint x="66" y="182" as="sourcePoint" />
            <mxPoint x="206.5" y="182" as="targetPoint" />
          </mxGeometry>
        </mxCell>
        <mxCell id="-JGBHk-QufhVQ-9pnQ-U-17" value="response" style="verticalAlign=bottom;endArrow=block;shadow=0;strokeWidth=1;" edge="1" parent="1">
          <mxGeometry relative="1" as="geometry">
            <mxPoint x="370" y="400" as="sourcePoint" />
            <mxPoint x="240" y="400" as="targetPoint" />
          </mxGeometry>
        </mxCell>
        <mxCell id="-JGBHk-QufhVQ-9pnQ-U-18" value="Show Categories Allies&#xa;Show Allies List" style="verticalAlign=bottom;endArrow=block;shadow=0;strokeWidth=1;" edge="1" parent="1">
          <mxGeometry relative="1" as="geometry">
            <mxPoint x="200" y="440" as="sourcePoint" />
            <mxPoint x="70" y="440" as="targetPoint" />
          </mxGeometry>
        </mxCell>
        <mxCell id="-JGBHk-QufhVQ-9pnQ-U-19" value="Select Ally" style="verticalAlign=bottom;endArrow=block;shadow=0;strokeWidth=1;" edge="1" parent="1">
          <mxGeometry relative="1" as="geometry">
            <mxPoint x="67" y="511" as="sourcePoint" />
            <mxPoint x="207.5" y="511" as="targetPoint" />
          </mxGeometry>
        </mxCell>
        <mxCell id="-JGBHk-QufhVQ-9pnQ-U-20" value="Web Ally" style="shape=umlLifeline;perimeter=lifelinePerimeter;whiteSpace=wrap;html=1;container=1;collapsible=0;recursiveResize=0;outlineConnect=0;rounded=1;shadow=0;comic=0;labelBackgroundColor=none;strokeWidth=1;fontFamily=Verdana;fontSize=12;align=center;" vertex="1" parent="1">
          <mxGeometry x="350" y="450" width="100" height="370" as="geometry" />
        </mxCell>
        <mxCell id="-JGBHk-QufhVQ-9pnQ-U-21" value="" style="html=1;points=[];perimeter=orthogonalPerimeter;rounded=0;shadow=0;comic=0;labelBackgroundColor=none;strokeWidth=1;fontFamily=Verdana;fontSize=12;align=center;" vertex="1" parent="-JGBHk-QufhVQ-9pnQ-U-20">
          <mxGeometry x="45" y="40" width="10" height="330" as="geometry" />
        </mxCell>
        <mxCell id="-JGBHk-QufhVQ-9pnQ-U-22" value="postMessage &quot;close&quot;" style="verticalAlign=bottom;endArrow=block;shadow=0;strokeWidth=1;" edge="1" parent="1">
          <mxGeometry relative="1" as="geometry">
            <mxPoint x="370" y="647" as="sourcePoint" />
            <mxPoint x="240" y="647" as="targetPoint" />
          </mxGeometry>
        </mxCell>
        <mxCell id="-JGBHk-QufhVQ-9pnQ-U-23" value="go Home Daviplata" style="verticalAlign=bottom;endArrow=block;shadow=0;strokeWidth=1;" edge="1" parent="1">
          <mxGeometry relative="1" as="geometry">
            <mxPoint x="204" y="659" as="sourcePoint" />
            <mxPoint x="74" y="659" as="targetPoint" />
          </mxGeometry>
        </mxCell>
        <mxCell id="-JGBHk-QufhVQ-9pnQ-U-24" value="InitView (encripted)" style="verticalAlign=bottom;endArrow=block;shadow=0;strokeWidth=1;" edge="1" parent="1">
          <mxGeometry relative="1" as="geometry">
            <mxPoint x="240" y="539" as="sourcePoint" />
            <mxPoint x="380.5" y="539" as="targetPoint" />
          </mxGeometry>
        </mxCell>
        <mxCell id="-JGBHk-QufhVQ-9pnQ-U-25" value="back" style="verticalAlign=bottom;endArrow=block;shadow=0;strokeWidth=1;" edge="1" parent="1">
          <mxGeometry relative="1" as="geometry">
            <mxPoint x="240" y="572" as="sourcePoint" />
            <mxPoint x="380.5" y="572" as="targetPoint" />
          </mxGeometry>
        </mxCell>
        <mxCell id="-JGBHk-QufhVQ-9pnQ-U-26" value="postMessage &quot;finish&quot;" style="verticalAlign=bottom;endArrow=block;shadow=0;strokeWidth=1;" edge="1" parent="1">
          <mxGeometry relative="1" as="geometry">
            <mxPoint x="370" y="758" as="sourcePoint" />
            <mxPoint x="240" y="758" as="targetPoint" />
          </mxGeometry>
        </mxCell>
        <mxCell id="-JGBHk-QufhVQ-9pnQ-U-27" value="show summary purchase" style="verticalAlign=bottom;endArrow=block;shadow=0;strokeWidth=1;" edge="1" parent="1">
          <mxGeometry relative="1" as="geometry">
            <mxPoint x="200" y="774" as="sourcePoint" />
            <mxPoint x="70" y="774" as="targetPoint" />
          </mxGeometry>
        </mxCell>
        <mxCell id="-JGBHk-QufhVQ-9pnQ-U-29" value="back response" style="verticalAlign=bottom;endArrow=block;shadow=0;strokeWidth=1;" edge="1" parent="1">
          <mxGeometry relative="1" as="geometry">
            <mxPoint x="371" y="593.5" as="sourcePoint" />
            <mxPoint x="241" y="593.5" as="targetPoint" />
          </mxGeometry>
        </mxCell>
        <mxCell id="-JGBHk-QufhVQ-9pnQ-U-30" value="go &quot;Tienda Virtual&quot;" style="verticalAlign=bottom;endArrow=block;shadow=0;strokeWidth=1;" edge="1" parent="1">
          <mxGeometry relative="1" as="geometry">
            <mxPoint x="200" y="600" as="sourcePoint" />
            <mxPoint x="70" y="600" as="targetPoint" />
            <Array as="points">
              <mxPoint x="136" y="600" />
            </Array>
          </mxGeometry>
        </mxCell>
        <mxCell id="-JGBHk-QufhVQ-9pnQ-U-31" value="postMessage &quot;share&quot;" style="verticalAlign=bottom;endArrow=block;shadow=0;strokeWidth=1;" edge="1" parent="1">
          <mxGeometry relative="1" as="geometry">
            <mxPoint x="370" y="710" as="sourcePoint" />
            <mxPoint x="240" y="710" as="targetPoint" />
          </mxGeometry>
        </mxCell>
        <mxCell id="-JGBHk-QufhVQ-9pnQ-U-32" value="show native share button" style="verticalAlign=bottom;endArrow=block;shadow=0;strokeWidth=1;" edge="1" parent="1">
          <mxGeometry relative="1" as="geometry">
            <mxPoint x="200" y="726" as="sourcePoint" />
            <mxPoint x="70" y="726" as="targetPoint" />
          </mxGeometry>
        </mxCell>
      </root>
    </mxGraphModel>
  </diagram>
</mxfile>
